<svg xmlns="http://www.w3.org/2000/svg" width="6000" height="1500" viewBox="0 0 6000 1500" version="1.1"><path d="M 982.018 96.448 C 1015.390 149.420, 1033.431 194.469, 1037.160 234.145 C 1039.921 263.521, 1032.928 289.168, 1016.587 309.591 C 992.692 339.456, 950.463 356.586, 888.065 361.723 L 878.630 362.500 888.565 370.478 C 950.607 420.302, 988.736 472.702, 1002.523 527.090 C 1009.938 556.345, 1010.307 589.254, 1003.542 618.086 C 995.149 653.860, 976.586 690.611, 950.233 723.628 C 938.585 738.222, 922.584 755.320, 911.124 765.419 C 905.558 770.324, 901.252 774.586, 901.556 774.890 C 901.860 775.193, 902.422 774.943, 902.804 774.333 C 903.187 773.723, 908.900 769.289, 915.500 764.479 C 1059.643 659.435, 1124.721 525.654, 1105.450 374 C 1095.217 293.471, 1058.935 204.396, 1003.212 123 C 994.257 109.918, 977.253 87, 976.502 87 C 976.262 87, 978.744 91.251, 982.018 96.448 M 363.704 191.008 C 342.027 192.189, 317.746 194.609, 297.500 197.605 C 269.196 201.794, 266.460 202.814, 288.500 200.958 C 307.131 199.390, 350.186 199.679, 367.315 201.488 C 420.764 207.134, 457.829 223.982, 478.435 252 C 499.743 280.971, 503.297 321.776, 488.800 371 C 485.629 381.770, 477.035 404.099, 473.080 411.847 C 471.859 414.238, 471.037 416.370, 471.252 416.585 C 471.467 416.800, 476.561 414.803, 482.572 412.147 C 531.600 390.479, 580.296 378.987, 622.994 379.008 C 657.879 379.026, 684.124 384.642, 711.854 398.025 C 746.302 414.650, 774.446 440.080, 798.706 476.502 C 817.111 504.135, 834.176 543.724, 842.551 578.218 C 844.116 584.663, 845.544 589.789, 845.724 589.609 C 846.364 588.969, 840.809 554.229, 837.391 537.500 C 821.964 461.997, 794.738 397.939, 756.422 346.993 C 714.841 291.707, 660.746 250.971, 594 224.682 C 549.201 207.037, 499.496 196.137, 445 192.006 C 425.617 190.536, 382.150 190.003, 363.704 191.008 M 427 508.625 C 424.525 508.845, 416.425 509.727, 409 510.586 C 302.138 522.941, 206.973 582.519, 131.208 684.500 C 98.462 728.577, 69.948 779.796, 48.147 833.700 C 44.766 842.059, 42.008 849.259, 42.017 849.700 C 42.026 850.140, 46.069 842.729, 51.002 833.232 C 92.151 753.995, 134.069 711.801, 181.500 701.872 C 184.800 701.181, 192.900 700.656, 199.500 700.706 C 223.113 700.881, 245.283 709.371, 269.527 727.521 C 285.776 739.686, 309.720 765.592, 322.054 784.353 C 324.458 788.009, 326.721 791, 327.083 791 C 327.445 791, 328.056 787.737, 328.441 783.750 C 331.415 752.924, 341.922 708.478, 352.730 681 C 387.464 592.691, 452.333 544.866, 543.850 540.099 C 579.019 538.266, 618.457 543.075, 653.500 553.467 C 659.550 555.261, 665.361 557.092, 666.414 557.535 C 667.768 558.104, 668.117 557.998, 667.605 557.170 C 667.207 556.526, 666.207 556, 665.382 556 C 664.503 556, 664.177 555.522, 664.595 554.845 C 665.027 554.147, 664.871 553.962, 664.200 554.376 C 663.590 554.753, 654.633 551.710, 644.296 547.614 C 594.734 527.975, 549.708 516.211, 502 510.437 C 489.154 508.882, 438.022 507.647, 427 508.625 M 1397.500 623.742 C 1358.789 705.213, 1314.043 752.037, 1266.258 761.076 C 1255.982 763.020, 1234.346 761.773, 1223.500 758.612 C 1204.173 752.979, 1181.578 739.496, 1163.500 722.808 C 1148.638 709.089, 1128.531 685.919, 1123.163 676.327 C 1122.606 675.331, 1121.927 674.739, 1121.655 675.012 C 1121.383 675.284, 1120.422 682.255, 1119.520 690.503 C 1105.159 821.856, 1047.949 901.720, 951.500 925.056 C 931.927 929.791, 921.069 931.100, 896.373 931.701 C 862.530 932.525, 834.601 929.425, 804.500 921.506 C 785.824 916.593, 785.576 916.567, 795.500 920.578 C 833.575 935.964, 880.016 949.103, 918.661 955.421 C 961.189 962.375, 1009.017 963.111, 1047.499 957.406 C 1144.960 942.956, 1229.696 891.366, 1299.599 803.920 C 1339.512 753.990, 1375.740 689.176, 1399.328 625.500 C 1407.245 604.129, 1406.952 603.848, 1397.500 623.742 M 549 697.107 C 549 697.716, 548.302 697.946, 547.448 697.618 C 546.594 697.291, 546.135 697.410, 546.428 697.883 C 546.720 698.356, 541.006 703.257, 533.730 708.774 C 510.156 726.648, 494.935 739.994, 471.927 762.964 C 443.369 791.475, 428.350 809.527, 409.496 838 C 340.291 942.517, 328.655 1065.522, 375.640 1195.905 C 396.053 1252.553, 429.391 1313.507, 467.983 1364.743 C 484.820 1387.096, 486.224 1388.417, 476.064 1372.346 C 447.910 1327.809, 431.237 1290.780, 423.831 1256.341 C 421.800 1246.897, 421.508 1242.859, 421.564 1225 C 421.624 1205.631, 421.778 1204.003, 424.359 1195.500 C 428.162 1182.967, 433.857 1171.892, 441.409 1162.342 C 464.485 1133.159, 507.961 1114.551, 564.411 1109.696 L 578.322 1108.500 566.754 1099.329 C 519.352 1061.749, 486.996 1024.338, 467.444 984.500 C 452.115 953.268, 446.056 928.180, 446.018 895.784 C 445.979 861.642, 452.743 834.459, 469.981 799.500 C 485.758 767.502, 503.381 743.491, 532.551 714.250 C 542.564 704.212, 550.361 696, 549.878 696 C 549.395 696, 549 696.498, 549 697.107 M 599.798 875.080 C 599.533 875.861, 599.653 877.175, 600.065 878 C 600.477 878.825, 601.779 886.475, 602.959 895 C 611.140 954.123, 628.641 1012.387, 652.551 1060.101 C 684.681 1124.221, 732.046 1176.187, 791.084 1212.093 C 849.123 1247.390, 916.841 1267.833, 1000 1275.161 C 1018.778 1276.815, 1081.806 1276.841, 1101.500 1275.202 C 1119.710 1273.686, 1154.559 1269.412, 1163.778 1267.563 C 1170.480 1266.219, 1170.463 1266.217, 1158.500 1266.857 C 1138.012 1267.955, 1088.284 1267.515, 1077 1266.137 C 1058.325 1263.857, 1040.249 1260.078, 1026.721 1255.627 C 1004.784 1248.408, 990.536 1240.305, 976.900 1227.291 C 963.316 1214.327, 954.532 1199.140, 949.838 1180.500 C 946.905 1168.851, 946.228 1144.195, 948.424 1129 C 951.600 1107.021, 959.027 1082.670, 969.136 1061.089 C 971.818 1055.364, 973.838 1050.505, 973.625 1050.292 C 973.413 1050.079, 967.447 1052.359, 960.369 1055.358 C 892.697 1084.032, 832.452 1093.173, 779.057 1082.869 C 756.762 1078.566, 730.728 1067.935, 711.500 1055.282 C 661.599 1022.445, 622.567 961.888, 604.049 888.580 C 601.976 880.375, 600.063 874.300, 599.798 875.080 M 3265 1066.076 C 3257.545 1067.397, 3248.323 1071.911, 3243.611 1076.543 C 3232.045 1087.913, 3230.829 1108.708, 3241.050 1120.319 C 3246.239 1126.214, 3253.661 1129.784, 3271.130 1134.787 C 3278.570 1136.917, 3286.629 1139.750, 3289.040 1141.080 C 3299.822 1147.033, 3301.238 1159.573, 3292.005 1167.342 C 3284.692 1173.496, 3268.630 1173.497, 3261.827 1167.345 C 3259.247 1165.012, 3256 1158.712, 3256 1156.040 C 3256 1154.109, 3255.406 1154, 3244.860 1154 L 3233.720 1154 3234.275 1159.372 C 3236.112 1177.175, 3253.160 1189.279, 3276.500 1189.351 C 3300.273 1189.424, 3317.004 1176.271, 3318.688 1156.185 C 3319.505 1146.440, 3317.205 1139.203, 3311.281 1132.869 C 3305.753 1126.959, 3298.506 1123.334, 3283.565 1119.003 C 3267.141 1114.243, 3262.734 1112.353, 3258.949 1108.447 C 3255.813 1105.212, 3255.500 1104.356, 3255.500 1099.018 C 3255.500 1091.914, 3257.591 1088.535, 3264.020 1085.250 C 3274.841 1079.721, 3289.442 1084.261, 3293.636 1094.460 L 3295.500 1098.993 3306.389 1098.996 L 3317.279 1099 3316.693 1094.054 C 3314.779 1077.894, 3299.876 1066.567, 3279.168 1065.534 C 3274.400 1065.296, 3268.025 1065.540, 3265 1066.076 M 3476.247 1066.109 C 3444.819 1071.346, 3423.537 1098.464, 3425.323 1131 C 3426.205 1147.067, 3431.773 1160.115, 3442.463 1171.167 C 3464.839 1194.298, 3504.302 1195.824, 3528.679 1174.500 C 3535.499 1168.533, 3542.479 1158.053, 3545.676 1148.977 C 3549.201 1138.971, 3549.997 1123.577, 3547.555 1112.603 C 3540.493 1080.859, 3509.399 1060.585, 3476.247 1066.109 M 4140.247 1066.109 C 4108.819 1071.346, 4087.537 1098.464, 4089.323 1131 C 4090.205 1147.067, 4095.773 1160.115, 4106.463 1171.167 C 4128.839 1194.298, 4168.302 1195.824, 4192.679 1174.500 C 4199.499 1168.533, 4206.479 1158.053, 4209.676 1148.977 C 4213.201 1138.971, 4213.997 1123.577, 4211.555 1112.603 C 4204.493 1080.859, 4173.399 1060.585, 4140.247 1066.109 M 4470 1066.076 C 4462.545 1067.397, 4453.323 1071.911, 4448.611 1076.543 C 4437.045 1087.913, 4435.829 1108.708, 4446.050 1120.319 C 4451.239 1126.214, 4458.661 1129.784, 4476.130 1134.787 C 4483.570 1136.917, 4491.629 1139.750, 4494.040 1141.080 C 4504.822 1147.033, 4506.238 1159.573, 4497.005 1167.342 C 4489.692 1173.496, 4473.630 1173.497, 4466.827 1167.345 C 4464.247 1165.012, 4461 1158.712, 4461 1156.040 C 4461 1154.109, 4460.406 1154, 4449.860 1154 L 4438.720 1154 4439.275 1159.372 C 4441.112 1177.175, 4458.160 1189.279, 4481.500 1189.351 C 4505.273 1189.424, 4522.004 1176.271, 4523.688 1156.185 C 4524.505 1146.440, 4522.205 1139.203, 4516.281 1132.869 C 4510.753 1126.959, 4503.506 1123.334, 4488.565 1119.003 C 4472.141 1114.243, 4467.734 1112.353, 4463.949 1108.447 C 4460.813 1105.212, 4460.500 1104.356, 4460.500 1099.018 C 4460.500 1091.914, 4462.591 1088.535, 4469.020 1085.250 C 4479.841 1079.721, 4494.442 1084.261, 4498.636 1094.460 L 4500.500 1098.993 4511.389 1098.996 L 4522.279 1099 4521.693 1094.054 C 4519.779 1077.894, 4504.876 1066.567, 4484.168 1065.534 C 4479.400 1065.296, 4473.025 1065.540, 4470 1066.076 M 1710 1127.500 L 1710 1188 1720 1188 L 1730 1188 1730 1127.500 L 1730 1067 1720 1067 L 1710 1067 1710 1127.500 M 1756 1127.500 L 1756 1188 1765.990 1188 L 1775.979 1188 1776.240 1143.796 L 1776.500 1099.592 1805.719 1143.796 L 1834.938 1188 1845.469 1188 L 1856 1188 1856 1127.500 L 1856 1067 1845.500 1067 L 1835 1067 1834.979 1111.250 L 1834.959 1155.500 1805.729 1111.265 L 1776.500 1067.030 1766.250 1067.015 L 1756 1067 1756 1127.500 M 1881 1127.500 L 1881 1188 1891 1188 L 1901 1188 1901 1127.500 L 1901 1067 1891 1067 L 1881 1067 1881 1127.500 M 1920.210 1075.250 L 1920.500 1083.500 1936.750 1083.775 L 1953 1084.050 1953 1136.025 L 1953 1188 1963 1188 L 1973 1188 1973 1136.025 L 1973 1084.050 1989.250 1083.775 L 2005.500 1083.500 2005.790 1075.250 L 2006.081 1067 1963 1067 L 1919.919 1067 1920.210 1075.250 M 2025 1127.500 L 2025 1188 2035 1188 L 2045 1188 2045 1127.500 L 2045 1067 2035 1067 L 2025 1067 2025 1127.500 M 2105.992 1069.250 C 2104.228 1073.360, 2064 1186.392, 2064 1187.237 C 2064 1187.694, 2068.785 1187.940, 2074.634 1187.784 L 2085.267 1187.500 2089.379 1175.750 L 2093.490 1164 2118.635 1164 L 2143.779 1164 2147.500 1174.870 C 2149.546 1180.848, 2151.545 1186.264, 2151.941 1186.905 C 2152.435 1187.704, 2155.972 1187.981, 2163.184 1187.786 L 2173.707 1187.500 2152.136 1127.250 L 2130.565 1067 2118.761 1067 C 2107.473 1067, 2106.915 1067.098, 2105.992 1069.250 M 2185.210 1075.250 L 2185.500 1083.500 2201.750 1083.775 L 2218 1084.050 2218 1136.025 L 2218 1188 2228 1188 L 2238 1188 2238 1136.025 L 2238 1084.050 2254.250 1083.775 L 2270.500 1083.500 2270.790 1075.250 L 2271.081 1067 2228 1067 L 2184.919 1067 2185.210 1075.250 M 2290 1127.500 L 2290 1188 2323.500 1188 L 2357 1188 2357 1179.500 L 2357 1171 2333.500 1171 L 2310 1171 2310 1153 L 2310 1135 2331 1135 L 2352 1135 2352 1126.500 L 2352 1118 2331 1118 L 2310 1118 2310 1101 L 2310 1084 2333.500 1084 L 2357 1084 2357 1075.500 L 2357 1067 2323.500 1067 L 2290 1067 2290 1127.500 M 2419.210 1075.250 L 2419.500 1083.500 2435.750 1083.775 L 2452 1084.050 2452 1136.025 L 2452 1188 2462 1188 L 2472 1188 2472 1136.025 L 2472 1084.050 2488.250 1083.775 L 2504.500 1083.500 2504.790 1075.250 L 2505.081 1067 2462 1067 L 2418.919 1067 2419.210 1075.250 M 2524 1127.500 L 2524 1188 2534 1188 L 2544 1188 2544 1162 L 2544 1136 2572 1136 L 2600 1136 2600 1162 L 2600 1188 2610.500 1188 L 2621 1188 2621 1127.500 L 2621 1067 2610.500 1067 L 2600 1067 2600 1093 L 2600 1119 2572 1119 L 2544 1119 2544 1093 L 2544 1067 2534 1067 L 2524 1067 2524 1127.500 M 2647 1127.500 L 2647 1188 2680.500 1188 L 2714 1188 2714 1179.500 L 2714 1171 2690.500 1171 L 2667 1171 2667 1153 L 2667 1135 2688 1135 L 2709 1135 2709 1126.500 L 2709 1118 2688 1118 L 2667 1118 2667 1101 L 2667 1084 2690.500 1084 L 2714 1084 2714 1075.500 L 2714 1067 2680.500 1067 L 2647 1067 2647 1127.500 M 2776.210 1075.250 L 2776.500 1083.500 2792.750 1083.775 L 2809 1084.050 2809 1136.025 L 2809 1188 2819 1188 L 2829 1188 2829 1136.025 L 2829 1084.050 2845.250 1083.775 L 2861.500 1083.500 2861.790 1075.250 L 2862.081 1067 2819 1067 L 2775.919 1067 2776.210 1075.250 M 2881 1127.500 L 2881 1188 2891 1188 L 2901 1188 2901 1164 L 2901 1140 2908.358 1140 L 2915.716 1140 2929.479 1164 L 2943.243 1188 2955.550 1188 L 2967.856 1188 2953.137 1163.262 L 2938.419 1138.524 2943.729 1136.366 C 2953.172 1132.528, 2958.830 1127.027, 2963.190 1117.445 C 2964.989 1113.492, 2965.441 1110.694, 2965.445 1103.500 C 2965.450 1095.714, 2965.065 1093.658, 2962.590 1088.253 C 2959.480 1081.461, 2953.716 1075.426, 2947.130 1072.066 C 2938.540 1067.684, 2933.026 1067, 2906.290 1067 L 2881 1067 2881 1127.500 M 3025.992 1069.250 C 3024.228 1073.360, 2984 1186.392, 2984 1187.237 C 2984 1187.694, 2988.785 1187.940, 2994.634 1187.784 L 3005.267 1187.500 3009.379 1175.750 L 3013.490 1164 3038.635 1164 L 3063.779 1164 3067.500 1174.870 C 3069.546 1180.848, 3071.545 1186.264, 3071.941 1186.905 C 3072.435 1187.704, 3075.972 1187.981, 3083.184 1187.786 L 3093.707 1187.500 3072.136 1127.250 L 3050.565 1067 3038.761 1067 C 3027.473 1067, 3026.915 1067.098, 3025.992 1069.250 M 3112 1127.500 L 3112 1188 3121.990 1188 L 3131.979 1188 3132.240 1143.796 L 3132.500 1099.592 3161.719 1143.796 L 3190.938 1188 3201.469 1188 L 3212 1188 3212 1127.500 L 3212 1067 3201.500 1067 L 3191 1067 3190.979 1111.250 L 3190.959 1155.500 3161.729 1111.265 L 3132.500 1067.030 3122.250 1067.015 L 3112 1067 3112 1127.500 M 3342 1127.500 L 3342 1188 3352 1188 L 3362 1188 3362 1162 L 3362 1136 3382 1136 L 3402 1136 3402 1127.500 L 3402 1119 3382 1119 L 3362 1119 3362 1101.517 L 3362 1084.034 3387.750 1083.767 L 3413.500 1083.500 3413.790 1075.250 L 3414.081 1067 3378.040 1067 L 3342 1067 3342 1127.500 M 3568 1127.500 L 3568 1188 3578 1188 L 3588 1188 3588 1164 L 3588 1140 3595.358 1140 L 3602.716 1140 3616.479 1164 L 3630.243 1188 3642.550 1188 L 3654.856 1188 3640.137 1163.262 L 3625.419 1138.524 3630.729 1136.366 C 3640.172 1132.528, 3645.830 1127.027, 3650.190 1117.445 C 3651.989 1113.492, 3652.441 1110.694, 3652.445 1103.500 C 3652.450 1095.714, 3652.065 1093.658, 3649.590 1088.253 C 3646.480 1081.461, 3640.716 1075.426, 3634.130 1072.066 C 3625.540 1067.684, 3620.026 1067, 3593.290 1067 L 3568 1067 3568 1127.500 M 3678 1127.500 L 3678 1188 3687.989 1188 L 3697.977 1188 3698.239 1147.827 L 3698.500 1107.653 3716.440 1147.865 L 3734.381 1188.077 3741.861 1187.789 L 3749.342 1187.500 3767.146 1147.500 L 3784.949 1107.500 3784.975 1147.750 L 3785 1188 3795.500 1188 L 3806 1188 3806 1127.500 L 3806 1067 3794.750 1067.026 L 3783.500 1067.051 3763.040 1113.096 C 3751.787 1138.421, 3742.303 1159.313, 3741.963 1159.523 C 3741.624 1159.733, 3738.296 1153.063, 3734.569 1144.702 C 3730.842 1136.341, 3721.484 1115.438, 3713.773 1098.250 L 3699.753 1067 3688.877 1067 L 3678 1067 3678 1127.500 M 3865.992 1069.250 C 3864.228 1073.360, 3824 1186.392, 3824 1187.237 C 3824 1187.694, 3828.785 1187.940, 3834.634 1187.784 L 3845.267 1187.500 3849.379 1175.750 L 3853.490 1164 3878.635 1164 L 3903.779 1164 3907.500 1174.870 C 3909.546 1180.848, 3911.545 1186.264, 3911.941 1186.905 C 3912.435 1187.704, 3915.972 1187.981, 3923.184 1187.786 L 3933.707 1187.500 3912.136 1127.250 L 3890.565 1067 3878.761 1067 C 3867.473 1067, 3866.915 1067.098, 3865.992 1069.250 M 3945.210 1075.250 L 3945.500 1083.500 3961.750 1083.775 L 3978 1084.050 3978 1136.025 L 3978 1188 3988 1188 L 3998 1188 3998 1136.025 L 3998 1084.050 4014.250 1083.775 L 4030.500 1083.500 4030.790 1075.250 L 4031.081 1067 3988 1067 L 3944.919 1067 3945.210 1075.250 M 4050 1127.500 L 4050 1188 4060 1188 L 4070 1188 4070 1127.500 L 4070 1067 4060 1067 L 4050 1067 4050 1127.500 M 4232 1127.500 L 4232 1188 4241.990 1188 L 4251.979 1188 4252.240 1143.796 L 4252.500 1099.592 4281.719 1143.796 L 4310.938 1188 4321.469 1188 L 4332 1188 4332 1127.500 L 4332 1067 4321.500 1067 L 4311 1067 4310.979 1111.250 L 4310.959 1155.500 4281.729 1111.265 L 4252.500 1067.030 4242.250 1067.015 L 4232 1067 4232 1127.500 M 4547 1127.500 L 4547 1188 4580.500 1188 L 4614 1188 4614 1179.500 L 4614 1171 4590.500 1171 L 4567 1171 4567 1153 L 4567 1135 4588 1135 L 4609 1135 4609 1126.500 L 4609 1118 4588 1118 L 4567 1118 4567 1101 L 4567 1084 4590.500 1084 L 4614 1084 4614 1075.500 L 4614 1067 4580.500 1067 L 4547 1067 4547 1127.500 M 4638 1127.500 L 4638 1188 4648 1188 L 4658 1188 4658 1127.500 L 4658 1067 4648 1067 L 4638 1067 4638 1127.500 M 4679 1076 L 4679 1085 4706.500 1085 C 4721.625 1085, 4734 1085.270, 4734 1085.600 C 4734 1085.930, 4721.625 1105.681, 4706.500 1129.491 L 4679 1172.782 4679 1180.391 L 4679 1188 4719.539 1188 L 4760.078 1188 4759.789 1179.250 L 4759.500 1170.500 4731.853 1170.234 L 4704.207 1169.969 4732.088 1126.234 L 4759.970 1082.500 4759.985 1074.750 L 4760 1067 4719.500 1067 L 4679 1067 4679 1076 M 4781 1127.500 L 4781 1188 4814.500 1188 L 4848 1188 4848 1179.500 L 4848 1171 4824.500 1171 L 4801 1171 4801 1153 L 4801 1135 4822 1135 L 4843 1135 4843 1126.500 L 4843 1118 4822 1118 L 4801 1118 4801 1101 L 4801 1084 4824.500 1084 L 4848 1084 4848 1075.500 L 4848 1067 4814.500 1067 L 4781 1067 4781 1127.500 M 4910.210 1075.250 L 4910.500 1083.500 4926.750 1083.775 L 4943 1084.050 4943 1136.025 L 4943 1188 4953 1188 L 4963 1188 4963 1136.025 L 4963 1084.050 4979.250 1083.775 L 4995.500 1083.500 4995.790 1075.250 L 4996.081 1067 4953 1067 L 4909.919 1067 4910.210 1075.250 M 5015 1127.500 L 5015 1188 5025 1188 L 5035 1188 5035 1162 L 5035 1136 5063 1136 L 5091 1136 5091 1162 L 5091 1188 5101.500 1188 L 5112 1188 5112 1127.500 L 5112 1067 5101.500 1067 L 5091 1067 5091 1093 L 5091 1119 5063 1119 L 5035 1119 5035 1093 L 5035 1067 5025 1067 L 5015 1067 5015 1127.500 M 5138 1127.500 L 5138 1188 5171.500 1188 L 5205 1188 5205 1179.500 L 5205 1171 5181.500 1171 L 5158 1171 5158 1153 L 5158 1135 5179 1135 L 5200 1135 5200 1126.500 L 5200 1118 5179 1118 L 5158 1118 5158 1101 L 5158 1084 5181.500 1084 L 5205 1084 5205 1075.500 L 5205 1067 5171.500 1067 L 5138 1067 5138 1127.500 M 5274 1127.500 L 5274 1188 5284 1188 L 5294 1188 5294 1162 L 5294 1136 5314 1136 L 5334 1136 5334 1127.500 L 5334 1119 5314 1119 L 5294 1119 5294 1101.517 L 5294 1084.034 5319.750 1083.767 L 5345.500 1083.500 5345.790 1075.250 L 5346.081 1067 5310.040 1067 L 5274 1067 5274 1127.500 M 5362.227 1110.250 C 5362.588 1151.753, 5362.693 1153.771, 5364.829 1160.210 C 5368.194 1170.352, 5375.165 1178.780, 5384.043 1183.439 C 5391.882 1187.554, 5399.744 1189.341, 5410 1189.341 C 5436.050 1189.341, 5453.578 1175.251, 5457.076 1151.500 C 5457.562 1148.200, 5457.969 1127.838, 5457.980 1106.250 L 5458 1067 5447.500 1067 L 5437 1067 5437 1108.341 C 5437 1153.145, 5436.740 1155.719, 5431.526 1162.554 C 5426.815 1168.731, 5422.023 1170.500, 5410 1170.500 C 5400.296 1170.500, 5399.138 1170.287, 5394.728 1167.695 C 5389.197 1164.444, 5385.527 1159.381, 5384.074 1153 C 5383.467 1150.335, 5383.039 1131.881, 5383.024 1107.750 L 5383 1067 5372.425 1067 L 5361.850 1067 5362.227 1110.250 M 5476.210 1075.250 L 5476.500 1083.500 5492.750 1083.775 L 5509 1084.050 5509 1136.025 L 5509 1188 5519 1188 L 5529 1188 5529 1136.025 L 5529 1084.050 5545.250 1083.775 L 5561.500 1083.500 5561.790 1075.250 L 5562.081 1067 5519 1067 L 5475.919 1067 5476.210 1075.250 M 5580.227 1110.250 C 5580.588 1151.753, 5580.693 1153.771, 5582.829 1160.210 C 5586.194 1170.352, 5593.165 1178.780, 5602.043 1183.439 C 5609.882 1187.554, 5617.744 1189.341, 5628 1189.341 C 5654.050 1189.341, 5671.578 1175.251, 5675.076 1151.500 C 5675.562 1148.200, 5675.969 1127.838, 5675.980 1106.250 L 5676 1067 5665.500 1067 L 5655 1067 5655 1108.341 C 5655 1153.145, 5654.740 1155.719, 5649.526 1162.554 C 5644.815 1168.731, 5640.023 1170.500, 5628 1170.500 C 5618.296 1170.500, 5617.138 1170.287, 5612.728 1167.695 C 5607.197 1164.444, 5603.527 1159.381, 5602.074 1153 C 5601.467 1150.335, 5601.039 1131.881, 5601.024 1107.750 L 5601 1067 5590.425 1067 L 5579.850 1067 5580.227 1110.250 M 5701 1127.500 L 5701 1188 5711 1188 L 5721 1188 5721 1164 L 5721 1140 5728.358 1140 L 5735.716 1140 5749.479 1164 L 5763.243 1188 5775.550 1188 L 5787.856 1188 5773.137 1163.262 L 5758.419 1138.524 5763.729 1136.366 C 5773.172 1132.528, 5778.830 1127.027, 5783.190 1117.445 C 5784.989 1113.492, 5785.441 1110.694, 5785.445 1103.500 C 5785.450 1095.714, 5785.065 1093.658, 5782.590 1088.253 C 5779.480 1081.461, 5773.716 1075.426, 5767.130 1072.066 C 5758.540 1067.684, 5753.026 1067, 5726.290 1067 L 5701 1067 5701 1127.500 M 5811 1127.500 L 5811 1188 5844.500 1188 L 5878 1188 5878 1179.500 L 5878 1171 5854.500 1171 L 5831 1171 5831 1153 L 5831 1135 5852 1135 L 5873 1135 5873 1126.500 L 5873 1118 5852 1118 L 5831 1118 5831 1101 L 5831 1084 5854.500 1084 L 5878 1084 5878 1075.500 L 5878 1067 5844.500 1067 L 5811 1067 5811 1127.500 M 3479.769 1084.073 C 3462.400 1086.650, 3449.757 1100.122, 3446.842 1119.161 C 3443.707 1139.633, 3452.362 1159.106, 3468.133 1167.067 C 3479.102 1172.604, 3494.771 1172.748, 3505.739 1167.412 C 3529.069 1156.063, 3535.478 1120.079, 3518.255 1097.142 C 3511.003 1087.483, 3494.517 1081.885, 3479.769 1084.073 M 4143.769 1084.073 C 4126.400 1086.650, 4113.757 1100.122, 4110.842 1119.161 C 4107.707 1139.633, 4116.362 1159.106, 4132.133 1167.067 C 4143.102 1172.604, 4158.771 1172.748, 4169.739 1167.412 C 4193.069 1156.063, 4199.478 1120.079, 4182.255 1097.142 C 4175.003 1087.483, 4158.517 1081.885, 4143.769 1084.073 M 2901 1103.481 L 2901 1123.138 2916.828 1122.819 C 2932.033 1122.513, 2932.813 1122.395, 2936.671 1119.839 C 2941.953 1116.340, 2944.424 1111.131, 2944.424 1103.500 C 2944.424 1095.868, 2941.952 1090.659, 2936.670 1087.161 C 2932.815 1084.607, 2932.014 1084.486, 2916.826 1084.162 L 2901 1083.824 2901 1103.481 M 3588 1103.481 L 3588 1123.138 3603.828 1122.819 C 3619.033 1122.513, 3619.813 1122.395, 3623.671 1119.839 C 3628.953 1116.340, 3631.424 1111.131, 3631.424 1103.500 C 3631.424 1095.868, 3628.952 1090.659, 3623.670 1087.161 C 3619.815 1084.607, 3619.014 1084.486, 3603.826 1084.162 L 3588 1083.824 3588 1103.481 M 5721 1103.481 L 5721 1123.138 5736.828 1122.819 C 5752.033 1122.513, 5752.813 1122.395, 5756.671 1119.839 C 5761.953 1116.340, 5764.424 1111.131, 5764.424 1103.500 C 5764.424 1095.868, 5761.952 1090.659, 5756.670 1087.161 C 5752.815 1084.607, 5752.014 1084.486, 5736.826 1084.162 L 5721 1083.824 5721 1103.481 M 2109.042 1119.542 C 2103.912 1134.120, 2099.940 1146.273, 2100.214 1146.547 C 2100.488 1146.821, 2109.025 1146.923, 2119.185 1146.773 L 2137.657 1146.500 2128.408 1120.162 C 2123.320 1105.677, 2118.980 1093.647, 2118.763 1093.430 C 2118.546 1093.212, 2114.171 1104.963, 2109.042 1119.542 M 3029.042 1119.542 C 3023.912 1134.120, 3019.940 1146.273, 3020.214 1146.547 C 3020.488 1146.821, 3029.025 1146.923, 3039.185 1146.773 L 3057.657 1146.500 3048.408 1120.162 C 3043.320 1105.677, 3038.980 1093.647, 3038.763 1093.430 C 3038.546 1093.212, 3034.171 1104.963, 3029.042 1119.542 M 3869.042 1119.542 C 3863.912 1134.120, 3859.940 1146.273, 3860.214 1146.547 C 3860.488 1146.821, 3869.025 1146.923, 3879.185 1146.773 L 3897.657 1146.500 3888.408 1120.162 C 3883.320 1105.677, 3878.980 1093.647, 3878.763 1093.430 C 3878.546 1093.212, 3874.171 1104.963, 3869.042 1119.542 M 4357.519 1165.250 C 4356.187 1169.237, 4346 1210.027, 4346 1211.376 C 4346 1212.704, 4347.156 1213, 4352.339 1213 C 4358.279 1213, 4358.759 1212.827, 4359.955 1210.250 C 4362.535 1204.689, 4380 1164.702, 4380 1164.357 C 4380 1164.161, 4375.036 1164, 4368.969 1164 C 4361.033 1164, 4357.820 1164.351, 4357.519 1165.250" stroke="none" fill="#fb6d1c" fill-rule="evenodd"/><path d="M 974.391 84.250 C 1001.916 118.041, 1030.232 162.344, 1051.248 204.500 C 1117.749 337.890, 1126.738 462.905, 1077.816 574 C 1047.134 643.675, 989.376 711.266, 914.298 765.358 C 908.136 769.797, 903.253 773.586, 903.446 773.779 C 903.848 774.181, 925.267 765.529, 941.500 758.407 C 957.421 751.422, 993.835 733.278, 1007.630 725.456 C 1112.091 666.229, 1172.842 593.386, 1188.447 508.649 C 1203.427 427.312, 1177.377 336.107, 1111.038 237.616 C 1078.552 189.387, 1034.732 138.155, 991.038 97.320 C 974.287 81.665, 968.734 77.305, 974.391 84.250 M 509 150.038 C 453.470 152.617, 389.281 163.855, 326.500 181.988 C 305.861 187.949, 267.881 200.752, 266.500 202.214 C 265.804 202.950, 266.260 203.077, 268 202.630 C 280.307 199.469, 319.491 194.289, 349.500 191.855 C 368.987 190.274, 424.187 190.283, 444 191.869 C 500.946 196.429, 548.902 206.919, 594 224.682 C 660.746 250.971, 714.841 291.707, 756.422 346.993 C 795.372 398.782, 822.614 463.461, 837.923 540.500 C 840.109 551.500, 842.623 565.900, 843.511 572.500 C 845.690 588.709, 846.506 590.376, 847.416 580.478 C 847.820 576.090, 848.814 565.300, 849.624 556.500 C 851.673 534.269, 852.542 472.781, 851.108 451.500 C 842.654 326.004, 798.684 240.715, 717.737 192.801 C 663.800 160.875, 592.071 146.180, 509 150.038 M 2045 370 L 2045 434 2245 434 L 2445 434 2445 370 L 2445 306 2245 306 L 2045 306 2045 370 M 2963 372 L 2963 438 3030 438 L 3097 438 3097 659.500 L 3097 881 3161.500 881 L 3226 881 3226 659.500 L 3226 438 3292 438 L 3358 438 3358 372 L 3358 306 3160.500 306 L 2963 306 2963 372 M 4672 370 L 4672 434 4872 434 L 5072 434 5072 370 L 5072 306 4872 306 L 4672 306 4672 370 M 5597 372 L 5597 438 5664 438 L 5731 438 5731 659.500 L 5731 881 5795.500 881 L 5860 881 5860 659.500 L 5860 438 5926 438 L 5992 438 5992 372 L 5992 306 5794.500 306 L 5597 306 5597 372 M 1520.008 307.750 C 1520.012 308.163, 1566.286 436.975, 1622.838 594 L 1725.661 879.500 1756.728 879.764 L 1787.795 880.028 1788.793 877.264 C 1789.341 875.744, 1837.763 747.215, 1896.395 591.645 C 1955.028 436.075, 2003 308.384, 2003 307.888 C 2003 307.358, 1976.507 307.092, 1938.852 307.243 L 1874.704 307.500 1817.102 473.168 C 1785.421 564.285, 1759.234 639.101, 1758.909 639.425 C 1758.584 639.750, 1731.845 565.087, 1699.489 473.508 L 1640.661 307 1580.330 307 C 1547.149 307, 1520.004 307.337, 1520.008 307.750 M 2528 593.500 L 2528 880 2581 880 L 2634 880 2634 811 L 2634 742 2672.777 742 L 2711.553 742 2755.370 811 L 2799.186 880 2859.593 880 C 2892.817 880, 2920 879.829, 2920 879.619 C 2920 879.410, 2899.030 843.538, 2873.399 799.903 C 2845.923 753.127, 2827.283 720.406, 2827.980 720.173 C 2828.631 719.956, 2832.508 717.542, 2836.596 714.807 C 2844.996 709.189, 2857.180 697.521, 2864.262 688.312 C 2889.680 655.262, 2907.364 603.260, 2914.526 540.500 C 2918.079 509.371, 2915.108 476.614, 2905.583 441.881 C 2887.159 374.697, 2841.972 328.463, 2779.178 312.545 C 2757.433 307.033, 2757.564 307.038, 2638.250 307.018 L 2528 307 2528 593.500 M 4166.630 385.250 C 4166.293 428.288, 4165.740 557.212, 4165.402 671.750 L 4164.786 880 4222.273 880 L 4279.761 880 4280.451 823.750 C 4280.830 792.813, 4280.996 724.144, 4280.820 671.154 L 4280.500 574.807 4285 579.709 C 4297.889 593.750, 4392.383 707.090, 4526.813 869.750 L 4535.285 880 4569.142 880 L 4603 880 4603 593.500 L 4603 307 4541.503 307 L 4480.006 307 4479.753 468.037 L 4479.500 629.074 4349.500 468.105 L 4219.500 307.136 4193.371 307.068 L 4167.242 307 4166.630 385.250 M 5120.167 307.750 C 5120.350 308.163, 5152.554 372.469, 5191.730 450.653 L 5262.961 592.806 5200.875 715.653 C 5166.728 783.219, 5134.108 847.841, 5128.386 859.258 L 5117.983 880.015 5180.595 879.758 L 5243.206 879.500 5268.232 836 C 5281.996 812.075, 5303.946 773.930, 5317.009 751.232 L 5340.759 709.965 5385.805 794.732 L 5430.852 879.500 5500.926 879.757 C 5539.467 879.898, 5571 879.819, 5571 879.581 C 5571 879.343, 5537.417 816.002, 5496.371 738.824 C 5455.325 661.646, 5421.076 597.110, 5420.263 595.411 L 5418.783 592.323 5495.892 450.070 C 5538.301 371.831, 5573 307.631, 5573 307.402 C 5573 307.174, 5541.033 307.102, 5501.963 307.243 L 5430.926 307.500 5386.354 390.500 C 5361.839 436.150, 5341.494 473.807, 5341.141 474.182 C 5340.788 474.557, 5319.385 437.094, 5293.577 390.932 L 5246.654 307 5183.244 307 C 5148.368 307, 5119.983 307.337, 5120.167 307.750 M 3604.500 308.668 C 3588.184 310.673, 3573.165 314.026, 3557.890 319.075 C 3544.970 323.345, 3518.558 336.406, 3506.500 344.486 C 3428.854 396.521, 3382 490.611, 3382 594.500 C 3382 739.929, 3474.642 862.251, 3597.795 879.428 C 3610.792 881.240, 3639.874 881.529, 3651.678 879.962 C 3665.674 878.103, 3680.267 874.871, 3692 871.029 C 3793.055 837.941, 3865.079 733.537, 3870.870 611.744 C 3873.703 552.155, 3862.536 498.418, 3836.796 447.778 C 3797.689 370.842, 3731.094 320.157, 3655.205 309.572 C 3644.917 308.138, 3613.396 307.575, 3604.500 308.668 M 348 436.491 C 268.006 446.197, 197.881 495.103, 142.625 579.722 C 97.868 648.263, 61.631 741.181, 41.536 838.930 C 39.566 848.516, 38.136 856.841, 38.360 857.430 C 38.590 858.034, 39.014 857.847, 39.334 857 C 39.646 856.175, 41.556 851, 43.579 845.500 C 54.299 816.360, 75.860 771.392, 93.445 741.500 C 137.135 667.233, 191.457 607.685, 251 568.786 C 301.242 535.963, 349.808 518.054, 409.500 510.336 C 429.179 507.792, 480.247 507.771, 501 510.298 C 550.480 516.324, 596.376 528.380, 646.908 548.625 C 657.033 552.681, 665.572 556, 665.884 556 C 667.050 556, 639.875 536.397, 623 525.066 C 544.242 472.181, 472.210 442.563, 406.576 436.079 C 392.267 434.666, 361.247 434.884, 348 436.491 M 2634 536.894 L 2634 637.787 2650.250 638.461 C 2681.063 639.738, 2714.089 639.599, 2720 638.167 C 2756.170 629.404, 2778.979 609.934, 2789.576 578.777 C 2794.660 563.830, 2797.070 537.459, 2795.028 519.127 C 2790.317 476.835, 2770.636 450.420, 2736.457 440.515 C 2724.590 437.077, 2708.279 436.005, 2667.750 436.002 L 2634 436 2634 536.894 M 3620.678 437.044 C 3573.164 442.355, 3531.534 480.837, 3513.085 536.500 C 3481.923 630.520, 3525.967 736.712, 3605.194 758.577 C 3617.852 762.070, 3637.710 762.954, 3650.275 760.582 C 3675.462 755.828, 3696.438 743.954, 3715.814 723.480 C 3756.407 680.588, 3771.918 610.762, 3754.968 547.226 C 3736.035 476.258, 3680.140 430.397, 3620.678 437.044 M 2077 593.500 L 2077 658.006 2242.750 657.753 L 2408.500 657.500 2408.500 593.500 L 2408.500 529.500 2242.750 529.247 L 2077 528.994 2077 593.500 M 4704 593.500 L 4704 658.006 4869.750 657.753 L 5035.500 657.500 5035.500 593.500 L 5035.500 529.500 4869.750 529.247 L 4704 528.994 4704 593.500 M 1407.628 601.792 C 1407.314 602.301, 1405.889 606.415, 1404.461 610.934 C 1403.033 615.453, 1399.842 624.386, 1397.369 630.785 C 1355.892 738.102, 1291.461 829.158, 1217.278 885.295 C 1159.621 928.927, 1096.370 953.511, 1025 960.030 C 1007.138 961.661, 970.508 961.404, 950.661 959.509 C 903.048 954.960, 853.559 942.863, 801.976 923.164 C 796.214 920.964, 790.600 918.836, 789.500 918.435 C 783.718 916.330, 825.674 944.615, 850.147 959.322 C 919.746 1001.146, 980.785 1023.977, 1042 1031.081 C 1055.504 1032.648, 1088.758 1032.673, 1101 1031.125 C 1158.821 1023.813, 1206.890 1000.295, 1250.400 958.030 C 1289.414 920.133, 1321.767 871.357, 1349.254 809 C 1374.120 752.588, 1395.700 679.949, 1406.460 616.438 C 1408.799 602.638, 1409.049 599.493, 1407.628 601.792 M 531 704.055 C 509.221 713.319, 470.280 732.493, 451.227 743.334 C 348.707 801.664, 288.086 871.458, 269.116 953 C 264.600 972.412, 263.514 983.402, 263.580 1009 C 263.648 1035.283, 265.127 1048.850, 270.494 1072.446 C 290.054 1158.437, 348.336 1253.044, 438 1344.352 C 461.536 1368.320, 490.796 1395.334, 487.575 1390.121 C 487.158 1389.447, 482.845 1383.937, 477.989 1377.877 C 444.578 1336.175, 411.331 1280.742, 389.204 1229.842 C 327.149 1087.092, 334.156 951.783, 409.496 838 C 428.344 809.535, 443.363 791.482, 471.927 762.959 C 494.818 740.100, 511.220 725.775, 535.714 707.250 C 543.167 701.612, 548.869 697.008, 548.383 697.018 C 547.897 697.028, 540.075 700.194, 531 704.055 M 2045 815.502 L 2045 880.005 2244.750 879.752 L 2444.500 879.500 2444.757 815.250 L 2445.015 751 2245.007 751 L 2045 751 2045 815.502 M 4672 815.502 L 4672 880.005 4871.750 879.752 L 5071.500 879.500 5071.757 815.250 L 5072.015 751 4872.007 751 L 4672 751 4672 815.502 M 598.651 883.729 C 598.298 887.453, 597.361 897.250, 596.567 905.500 C 588.029 994.219, 595.391 1075.396, 617.516 1136.506 C 657.731 1247.580, 745.258 1307.090, 881.500 1315.989 C 948.834 1320.387, 1033.531 1309.359, 1119.326 1285.022 C 1140.825 1278.924, 1174.897 1267.527, 1176.410 1265.928 C 1177.219 1265.072, 1176.985 1264.921, 1175.500 1265.341 C 1166.697 1267.832, 1127.215 1273.082, 1101.500 1275.181 C 1080.921 1276.861, 1019.248 1276.846, 1000 1275.156 C 916.946 1267.864, 849.123 1247.391, 791.084 1212.093 C 732.046 1176.187, 684.681 1124.221, 652.551 1060.101 C 628.571 1012.246, 611.478 955.253, 602.675 893.796 C 601.438 885.159, 600.171 877.837, 599.859 877.525 C 599.546 877.213, 599.003 880.005, 598.651 883.729" stroke="none" fill="#353eb5" fill-rule="evenodd"/></svg>