<?xml version="1.0" standalone="no"?>
<!DOCTYPE svg PUBLIC "-//W3C//DTD SVG 20010904//EN"
 "http://www.w3.org/TR/2001/REC-SVG-20010904/DTD/svg10.dtd">
<svg version="1.0" xmlns="http://www.w3.org/2000/svg"
 width="100.000000pt" height="90.000000pt" viewBox="0 0 100.000000 90.000000"
 preserveAspectRatio="xMidYMid meet">

<g transform="translate(0.000000,90.000000) scale(0.100000,-0.100000)"
fill="#000000" stroke="none">
<path d="M674 844 c40 -68 59 -137 54 -204 -2 -33 -7 -63 -11 -66 -4 -4 -17 2
-30 14 l-23 22 0 -49 c0 -37 -7 -60 -27 -90 -32 -49 -26 -51 34 -12 120 77
146 159 90 276 -15 33 -47 80 -70 105 l-42 45 25 -41z"/>
<path d="M250 837 l-55 -11 75 -8 c136 -15 234 -87 262 -194 17 -63 32 -55 23
14 -14 117 -64 181 -155 201 -59 13 -75 12 -150 -2z"/>
<path d="M152 629 c-48 -24 -95 -85 -124 -161 -26 -68 -23 -74 16 -34 40 43
79 47 122 14 19 -14 15 -6 -13 23 -24 25 -43 49 -43 54 0 14 59 51 104 65 37
12 127 9 171 -5 35 -11 -23 28 -69 47 -56 23 -113 22 -164 -3z"/>
<path d="M907 465 c-25 -53 -97 -126 -145 -147 -41 -19 -45 -19 -62 -3 -13 12
-25 15 -37 10 -10 -5 -43 -11 -73 -14 l-55 -6 41 -22 c23 -12 62 -27 88 -34
110 -28 205 48 256 204 16 50 8 57 -13 12z"/>
<path d="M284 441 c-103 -59 -147 -140 -125 -228 14 -55 56 -125 101 -168 l31
-30 -16 30 c-9 17 -15 49 -13 72 2 35 -3 48 -26 72 -26 27 -28 35 -23 76 9 60
39 117 89 165 22 22 39 40 37 40 -2 0 -27 -13 -55 -29z"/>
<path d="M380 280 c0 -30 5 -72 11 -93 15 -56 70 -112 124 -127 51 -14 184 -9
225 9 23 11 23 11 -10 7 -19 -2 -59 0 -88 5 -49 7 -59 14 -143 99 -50 50 -97
105 -104 123 l-14 32 -1 -55z"/>
</g>
</svg>
