<svg xmlns="http://www.w3.org/2000/svg" width="512" height="341" viewBox="0 0 512 341" version="1.1"><path d="M 159.061 86.022 C 126.039 90.628, 97.844 115.063, 88.660 147.031 C 84.326 162.118, 84.708 181.723, 89.628 196.797 C 98.532 224.073, 121.113 245.318, 149.500 253.127 C 160.683 256.203, 180.032 256.199, 191.500 253.118 C 207.559 248.803, 221.317 240.708, 232.203 229.168 C 240.732 220.126, 243.183 215.852, 236.278 222.060 C 233.502 224.556, 228.490 228.059, 225.140 229.845 C 204.149 241.033, 182.802 241.544, 162 231.357 C 154.052 227.465, 151.105 225.300, 143.961 218.103 C 130.764 204.807, 125.221 192.362, 124.319 174 C 123.674 160.865, 125.452 151.844, 130.907 140.575 C 137.335 127.294, 150.933 114.061, 164.108 108.265 C 178.041 102.136, 196.617 100.765, 210 104.879 C 219.994 107.950, 230.008 113.303, 236.235 118.901 C 243.155 125.123, 240.762 120.686, 232.586 112.136 C 213.655 92.339, 185.489 82.335, 159.061 86.022 M 267 145.929 L 267 160.859 252.461 165.666 L 237.922 170.474 252.435 175.312 L 266.949 180.150 267.224 195.275 L 267.500 210.400 276.363 198.136 C 281.237 191.391, 285.737 186.067, 286.363 186.305 C 291.630 188.311, 313.310 195.024, 313.595 194.738 C 313.796 194.538, 310.100 189.102, 305.384 182.659 C 300.667 176.215, 297.038 170.394, 297.320 169.722 C 297.602 169.050, 301.461 163.578, 305.896 157.563 C 310.330 151.547, 313.795 146.462, 313.595 146.261 C 313.309 145.976, 291.627 152.691, 286.363 154.695 C 285.737 154.933, 281.301 149.699, 276.505 143.064 C 271.709 136.429, 267.608 131, 267.392 131 C 267.177 131, 267 137.718, 267 145.929" stroke="none" fill="#fbf9f9" fill-rule="evenodd"/><path d="M -0 170.502 L -0 341.004 256.250 340.752 L 512.500 340.500 512.753 170.250 L 513.006 0 256.503 0 L 0 0 -0 170.502 M 0.489 171 C 0.489 264.775, 0.606 303.138, 0.750 256.250 C 0.894 209.362, 0.894 132.638, 0.750 85.750 C 0.606 38.862, 0.489 77.225, 0.489 171 M 159.061 86.022 C 126.039 90.628, 97.844 115.063, 88.660 147.031 C 84.326 162.118, 84.708 181.723, 89.628 196.797 C 98.532 224.073, 121.113 245.318, 149.500 253.127 C 160.683 256.203, 180.032 256.199, 191.500 253.118 C 207.559 248.803, 221.317 240.708, 232.203 229.168 C 240.732 220.126, 243.183 215.852, 236.278 222.060 C 233.502 224.556, 228.490 228.059, 225.140 229.845 C 204.149 241.033, 182.802 241.544, 162 231.357 C 154.052 227.465, 151.105 225.300, 143.961 218.103 C 130.764 204.807, 125.221 192.362, 124.319 174 C 123.674 160.865, 125.452 151.844, 130.907 140.575 C 137.335 127.294, 150.933 114.061, 164.108 108.265 C 178.041 102.136, 196.617 100.765, 210 104.879 C 219.994 107.950, 230.008 113.303, 236.235 118.901 C 243.155 125.123, 240.762 120.686, 232.586 112.136 C 213.655 92.339, 185.489 82.335, 159.061 86.022 M 267 145.929 L 267 160.859 252.461 165.666 L 237.922 170.474 252.435 175.312 L 266.949 180.150 267.224 195.275 L 267.500 210.400 276.363 198.136 C 281.237 191.391, 285.737 186.067, 286.363 186.305 C 291.630 188.311, 313.310 195.024, 313.595 194.738 C 313.796 194.538, 310.100 189.102, 305.384 182.659 C 300.667 176.215, 297.038 170.394, 297.320 169.722 C 297.602 169.050, 301.461 163.578, 305.896 157.563 C 310.330 151.547, 313.795 146.462, 313.595 146.261 C 313.309 145.976, 291.627 152.691, 286.363 154.695 C 285.737 154.933, 281.301 149.699, 276.505 143.064 C 271.709 136.429, 267.608 131, 267.392 131 C 267.177 131, 267 137.718, 267 145.929" stroke="none" fill="#e40c14" fill-rule="evenodd"/></svg>